<svg width="641.992" height="78.398" viewBox="0 0 641.992 78.398" xmlns="http://www.w3.org/2000/svg"><g id="svgGroup" stroke-linecap="round" fill-rule="evenodd" font-size="9pt" stroke="#9f2a21" stroke-width="0.25mm" fill="#9f2a21" style="stroke:#9f2a21;stroke-width:0.25mm;fill:#9f2a21"><path d="M 37.695 32.07 L 37.695 60.078 L 27.539 60.078 L 27.539 32.07 Q 27.539 30.656 27.008 29.724 A 3.102 3.102 0 0 0 26.484 29.043 Q 25.603 28.178 24.011 28.036 A 7.342 7.342 0 0 0 23.359 28.008 L 10.156 28.008 L 10.156 60.078 L 0 60.078 L 0 22.891 Q 0 21.836 0.391 20.918 Q 0.781 20 1.484 19.316 Q 2.188 18.633 3.125 18.242 Q 4.063 17.852 5.117 17.852 L 23.438 17.852 A 13.756 13.756 0 0 1 25.91 18.086 A 18.2 18.2 0 0 1 27.969 18.594 A 14.725 14.725 0 0 1 31.993 20.557 A 16.972 16.972 0 0 1 32.578 20.977 L 32.578 17.852 L 46.328 17.852 Q 47.774 17.852 49.375 18.184 A 15.608 15.608 0 0 1 52.46 19.175 A 17.208 17.208 0 0 1 52.559 19.219 Q 54.141 19.922 55.586 21.035 A 11.941 11.941 0 0 1 58.117 23.718 A 13.476 13.476 0 0 1 58.125 23.73 A 13.001 13.001 0 0 1 59.426 26.137 A 15.79 15.79 0 0 1 59.883 27.383 A 13.568 13.568 0 0 1 60.42 29.885 A 18.027 18.027 0 0 1 60.547 32.07 L 60.547 60.078 L 50.391 60.078 L 50.391 32.07 A 6.378 6.378 0 0 0 50.293 30.919 Q 50.175 30.273 49.911 29.767 A 3.1 3.1 0 0 0 49.395 29.043 Q 48.591 28.208 47.089 28.047 A 7.125 7.125 0 0 0 46.328 28.008 L 37.188 28.008 A 14.653 14.653 0 0 1 37.646 30.734 A 17.653 17.653 0 0 1 37.695 32.07 Z M 113.477 31.836 L 113.477 46.094 A 13.828 13.828 0 0 1 113.248 48.536 A 18.491 18.491 0 0 1 112.734 50.645 A 13.599 13.599 0 0 1 110.332 55.176 A 12.685 12.685 0 0 1 107.43 57.821 A 15.683 15.683 0 0 1 105.996 58.672 A 11.727 11.727 0 0 1 102.828 59.769 Q 101.479 60.04 99.937 60.073 A 20.299 20.299 0 0 1 99.492 60.078 L 81.172 60.078 A 13.828 13.828 0 0 1 78.73 59.85 A 18.491 18.491 0 0 1 76.621 59.336 A 13.599 13.599 0 0 1 72.09 56.934 A 12.685 12.685 0 0 1 69.445 54.032 A 15.683 15.683 0 0 1 68.594 52.598 A 11.727 11.727 0 0 1 67.497 49.429 Q 67.226 48.081 67.192 46.538 A 20.299 20.299 0 0 1 67.188 46.094 A 13.835 13.835 0 0 1 67.397 43.753 A 18.689 18.689 0 0 1 67.93 41.523 A 13.563 13.563 0 0 1 70.332 36.973 A 12.685 12.685 0 0 1 73.234 34.328 A 15.683 15.683 0 0 1 74.668 33.477 A 11.727 11.727 0 0 1 77.836 32.379 Q 79.185 32.109 80.727 32.075 A 20.299 20.299 0 0 1 81.172 32.07 L 99.492 32.07 L 99.492 41.758 L 81.172 41.758 A 5.413 5.413 0 0 0 79.859 41.908 A 3.653 3.653 0 0 0 77.969 43.027 Q 76.836 44.297 76.836 46.172 A 4.869 4.869 0 0 0 77.005 47.49 A 3.554 3.554 0 0 0 78.145 49.277 A 4.638 4.638 0 0 0 81.25 50.391 L 99.492 50.391 A 5.494 5.494 0 0 0 100.805 50.243 A 3.665 3.665 0 0 0 102.695 49.141 A 4.338 4.338 0 0 0 103.801 46.586 A 5.757 5.757 0 0 0 103.828 46.016 L 103.828 31.836 A 5.207 5.207 0 0 0 103.655 30.457 A 3.804 3.804 0 0 0 102.598 28.672 A 4.209 4.209 0 0 0 99.979 27.521 A 5.616 5.616 0 0 0 99.492 27.5 L 77.188 27.5 L 77.188 17.852 L 99.492 17.852 A 13.828 13.828 0 0 1 101.935 18.08 A 18.491 18.491 0 0 1 104.043 18.594 A 13.599 13.599 0 0 1 108.574 20.996 A 12.685 12.685 0 0 1 111.219 23.898 A 15.683 15.683 0 0 1 112.07 25.332 A 11.727 11.727 0 0 1 113.168 28.5 Q 113.438 29.849 113.472 31.391 A 20.299 20.299 0 0 1 113.477 31.836 Z M 173.633 45.82 L 155.313 45.82 L 155.313 36.172 L 173.633 36.172 A 5.413 5.413 0 0 0 174.945 36.022 A 3.653 3.653 0 0 0 176.836 34.902 Q 177.969 33.633 177.969 31.758 A 5.039 5.039 0 0 0 177.805 30.437 A 3.64 3.64 0 0 0 176.699 28.633 A 4.429 4.429 0 0 0 173.717 27.501 A 5.641 5.641 0 0 0 173.633 27.5 L 155.313 27.5 A 5.413 5.413 0 0 0 154 27.65 A 3.653 3.653 0 0 0 152.109 28.77 Q 150.977 30.039 150.977 31.914 L 150.977 46.094 A 5.211 5.211 0 0 0 151.137 47.424 A 3.643 3.643 0 0 0 152.246 49.258 Q 153.516 50.391 155.391 50.391 L 173.633 50.391 L 173.633 60.078 L 155.313 60.078 A 13.828 13.828 0 0 1 152.87 59.85 A 18.491 18.491 0 0 1 150.762 59.336 A 13.599 13.599 0 0 1 146.231 56.934 A 12.685 12.685 0 0 1 143.586 54.032 A 15.683 15.683 0 0 1 142.734 52.598 A 11.727 11.727 0 0 1 141.637 49.429 Q 141.367 48.081 141.333 46.538 A 20.299 20.299 0 0 1 141.328 46.094 L 141.328 31.836 A 13.828 13.828 0 0 1 141.557 29.394 A 18.491 18.491 0 0 1 142.07 27.285 A 13.599 13.599 0 0 1 144.473 22.754 A 12.685 12.685 0 0 1 147.375 20.109 A 15.683 15.683 0 0 1 148.809 19.258 A 11.727 11.727 0 0 1 151.977 18.161 Q 153.326 17.89 154.868 17.856 A 20.299 20.299 0 0 1 155.313 17.852 L 173.633 17.852 A 13.828 13.828 0 0 1 176.075 18.08 A 18.491 18.491 0 0 1 178.184 18.594 A 13.599 13.599 0 0 1 182.715 20.996 A 12.685 12.685 0 0 1 185.36 23.898 A 15.683 15.683 0 0 1 186.211 25.332 A 11.727 11.727 0 0 1 187.308 28.5 Q 187.579 29.849 187.612 31.391 A 20.299 20.299 0 0 1 187.617 31.836 A 13.828 13.828 0 0 1 187.389 34.278 A 18.491 18.491 0 0 1 186.875 36.387 A 13.599 13.599 0 0 1 184.473 40.918 A 12.685 12.685 0 0 1 181.571 43.563 A 15.683 15.683 0 0 1 180.137 44.414 A 11.727 11.727 0 0 1 176.969 45.511 Q 175.62 45.782 174.078 45.815 A 20.299 20.299 0 0 1 173.633 45.82 Z M 628.008 45.82 L 609.688 45.82 L 609.688 36.172 L 628.008 36.172 A 5.413 5.413 0 0 0 629.32 36.022 A 3.653 3.653 0 0 0 631.211 34.902 Q 632.344 33.633 632.344 31.758 A 5.039 5.039 0 0 0 632.18 30.437 A 3.64 3.64 0 0 0 631.074 28.633 A 4.429 4.429 0 0 0 628.092 27.501 A 5.641 5.641 0 0 0 628.008 27.5 L 609.688 27.5 A 5.413 5.413 0 0 0 608.375 27.65 A 3.653 3.653 0 0 0 606.484 28.77 Q 605.352 30.039 605.352 31.914 L 605.352 46.094 A 5.211 5.211 0 0 0 605.512 47.424 A 3.643 3.643 0 0 0 606.621 49.258 Q 607.891 50.391 609.766 50.391 L 628.008 50.391 L 628.008 60.078 L 609.688 60.078 A 13.828 13.828 0 0 1 607.245 59.85 A 18.491 18.491 0 0 1 605.137 59.336 A 13.599 13.599 0 0 1 600.606 56.934 A 12.685 12.685 0 0 1 597.961 54.032 A 15.683 15.683 0 0 1 597.109 52.598 A 11.727 11.727 0 0 1 596.012 49.429 Q 595.742 48.081 595.708 46.538 A 20.299 20.299 0 0 1 595.703 46.094 L 595.703 31.836 A 13.828 13.828 0 0 1 595.932 29.394 A 18.491 18.491 0 0 1 596.445 27.285 A 13.599 13.599 0 0 1 598.848 22.754 A 12.685 12.685 0 0 1 601.75 20.109 A 15.683 15.683 0 0 1 603.184 19.258 A 11.727 11.727 0 0 1 606.352 18.161 Q 607.701 17.89 609.243 17.856 A 20.299 20.299 0 0 1 609.688 17.852 L 628.008 17.852 A 13.828 13.828 0 0 1 630.45 18.08 A 18.491 18.491 0 0 1 632.559 18.594 A 13.599 13.599 0 0 1 637.09 20.996 A 12.685 12.685 0 0 1 639.735 23.898 A 15.683 15.683 0 0 1 640.586 25.332 A 11.727 11.727 0 0 1 641.683 28.5 Q 641.954 29.849 641.987 31.391 A 20.299 20.299 0 0 1 641.992 31.836 A 13.828 13.828 0 0 1 641.764 34.278 A 18.491 18.491 0 0 1 641.25 36.387 A 13.599 13.599 0 0 1 638.848 40.918 A 12.685 12.685 0 0 1 635.946 43.563 A 15.683 15.683 0 0 1 634.512 44.414 A 11.727 11.727 0 0 1 631.344 45.511 Q 629.995 45.782 628.453 45.815 A 20.299 20.299 0 0 1 628.008 45.82 Z M 221.016 60.078 L 193.516 60.078 L 193.516 49.922 L 220.938 49.922 A 6.475 6.475 0 0 0 222.132 49.819 Q 222.791 49.695 223.307 49.422 A 3.137 3.137 0 0 0 224.063 48.867 A 3.392 3.392 0 0 0 224.908 47.409 Q 225.117 46.707 225.117 45.82 A 6.163 6.163 0 0 0 224.838 44.188 Q 224.231 42.346 222.349 41.9 A 5.787 5.787 0 0 0 221.016 41.758 L 205.274 41.758 A 16.073 16.073 0 0 1 202.712 41.564 Q 201.29 41.335 200.105 40.832 A 9.383 9.383 0 0 1 199.57 40.586 A 12.873 12.873 0 0 1 197.27 39.129 A 10.496 10.496 0 0 1 195.762 37.656 A 11.471 11.471 0 0 1 194.026 34.866 A 10.529 10.529 0 0 1 193.652 33.867 A 14.626 14.626 0 0 1 193.174 31.934 A 10.914 10.914 0 0 1 193.008 30.078 A 15.84 15.84 0 0 1 193.2 27.541 Q 193.427 26.145 193.921 24.986 A 9.033 9.033 0 0 1 194.219 24.355 A 12.348 12.348 0 0 1 195.853 21.934 A 10.441 10.441 0 0 1 197.266 20.586 A 11.953 11.953 0 0 1 201.25 18.496 A 16.126 16.126 0 0 1 203.33 18.013 A 12.286 12.286 0 0 1 205.274 17.852 L 230.234 17.852 L 230.234 28.008 L 205.352 28.008 Q 204.588 28.008 204.142 28.176 A 1.663 1.663 0 0 0 204.121 28.184 Q 203.756 28.327 203.546 28.547 A 1.065 1.065 0 0 0 203.457 28.652 A 1.375 1.375 0 0 0 203.258 29.031 A 1.232 1.232 0 0 0 203.203 29.277 A 5.587 5.587 0 0 0 203.165 29.843 A 5.059 5.059 0 0 0 203.164 29.922 A 3.708 3.708 0 0 0 203.204 30.286 Q 203.264 30.657 203.399 30.898 Q 203.594 31.25 203.887 31.406 Q 204.18 31.563 204.551 31.582 A 13.791 13.791 0 0 0 205.252 31.602 A 12.606 12.606 0 0 0 205.274 31.602 L 221.016 31.602 Q 224.922 31.602 227.656 33.008 A 14.458 14.458 0 0 1 230.39 34.811 A 11.988 11.988 0 0 1 232.07 36.543 A 14.023 14.023 0 0 1 234.512 41.172 A 18.668 18.668 0 0 1 235.077 43.548 A 13.863 13.863 0 0 1 235.274 45.82 A 17.796 17.796 0 0 1 235.108 48.306 A 13.601 13.601 0 0 1 234.609 50.527 A 14.896 14.896 0 0 1 233.669 52.83 A 12.257 12.257 0 0 1 232.852 54.199 A 11.958 11.958 0 0 1 230.358 56.86 A 11.357 11.357 0 0 1 230.313 56.895 Q 228.867 58.008 227.285 58.711 A 15.561 15.561 0 0 1 224.082 59.746 A 16.638 16.638 0 0 1 222.219 60.023 A 13.585 13.585 0 0 1 221.016 60.078 Z M 575.195 60.078 L 547.695 60.078 L 547.695 49.922 L 575.117 49.922 A 6.475 6.475 0 0 0 576.312 49.819 Q 576.971 49.695 577.487 49.422 A 3.137 3.137 0 0 0 578.242 48.867 A 3.392 3.392 0 0 0 579.088 47.409 Q 579.297 46.707 579.297 45.82 A 6.163 6.163 0 0 0 579.018 44.188 Q 578.411 42.346 576.529 41.9 A 5.787 5.787 0 0 0 575.195 41.758 L 559.453 41.758 A 16.073 16.073 0 0 1 556.891 41.564 Q 555.47 41.335 554.285 40.832 A 9.383 9.383 0 0 1 553.75 40.586 A 12.873 12.873 0 0 1 551.449 39.129 A 10.496 10.496 0 0 1 549.942 37.656 A 11.471 11.471 0 0 1 548.206 34.866 A 10.529 10.529 0 0 1 547.832 33.867 A 14.626 14.626 0 0 1 547.354 31.934 A 10.914 10.914 0 0 1 547.188 30.078 A 15.84 15.84 0 0 1 547.38 27.541 Q 547.607 26.145 548.101 24.986 A 9.033 9.033 0 0 1 548.399 24.355 A 12.348 12.348 0 0 1 550.032 21.934 A 10.441 10.441 0 0 1 551.445 20.586 A 11.953 11.953 0 0 1 555.43 18.496 A 16.126 16.126 0 0 1 557.51 18.013 A 12.286 12.286 0 0 1 559.453 17.852 L 584.414 17.852 L 584.414 28.008 L 559.531 28.008 Q 558.768 28.008 558.322 28.176 A 1.663 1.663 0 0 0 558.301 28.184 Q 557.936 28.327 557.725 28.547 A 1.065 1.065 0 0 0 557.637 28.652 A 1.375 1.375 0 0 0 557.438 29.031 A 1.232 1.232 0 0 0 557.383 29.277 A 5.587 5.587 0 0 0 557.344 29.843 A 5.059 5.059 0 0 0 557.344 29.922 A 3.708 3.708 0 0 0 557.384 30.286 Q 557.444 30.657 557.578 30.898 Q 557.774 31.25 558.067 31.406 Q 558.359 31.563 558.731 31.582 A 13.791 13.791 0 0 0 559.431 31.602 A 12.606 12.606 0 0 0 559.453 31.602 L 575.195 31.602 Q 579.102 31.602 581.836 33.008 A 14.458 14.458 0 0 1 584.57 34.811 A 11.988 11.988 0 0 1 586.25 36.543 A 14.023 14.023 0 0 1 588.692 41.172 A 18.668 18.668 0 0 1 589.257 43.548 A 13.863 13.863 0 0 1 589.453 45.82 A 17.796 17.796 0 0 1 589.287 48.306 A 13.601 13.601 0 0 1 588.789 50.527 A 14.896 14.896 0 0 1 587.849 52.83 A 12.257 12.257 0 0 1 587.031 54.199 A 11.958 11.958 0 0 1 584.537 56.86 A 11.357 11.357 0 0 1 584.492 56.895 Q 583.047 58.008 581.465 58.711 A 15.561 15.561 0 0 1 578.262 59.746 A 16.638 16.638 0 0 1 576.399 60.023 A 13.585 13.585 0 0 1 575.195 60.078 Z M 539.102 17.852 L 539.102 54.961 A 5.382 5.382 0 0 1 538.886 56.498 A 4.917 4.917 0 0 1 538.711 56.992 Q 538.32 57.93 537.637 58.613 Q 536.953 59.297 536.035 59.688 A 4.969 4.969 0 0 1 534.128 60.078 A 5.659 5.659 0 0 1 534.063 60.078 L 511.094 60.078 Q 509.219 60.078 507.09 59.648 Q 504.961 59.219 502.891 58.262 A 21.594 21.594 0 0 1 499.131 56.022 A 23.966 23.966 0 0 1 498.887 55.84 A 15.426 15.426 0 0 1 495.508 52.285 A 17.203 17.203 0 0 1 493.788 49.107 A 20.89 20.89 0 0 1 493.184 47.461 A 17.893 17.893 0 0 1 492.473 44.162 A 23.57 23.57 0 0 1 492.305 41.289 L 492.305 17.852 L 502.461 17.852 L 502.461 41.289 A 9.966 9.966 0 0 0 502.654 43.29 A 7.998 7.998 0 0 0 503.145 44.863 A 8.373 8.373 0 0 0 504.78 47.357 A 8 8 0 0 0 505 47.578 Q 506.172 48.711 507.754 49.316 A 9.291 9.291 0 0 0 510.604 49.907 A 10.79 10.79 0 0 0 511.172 49.922 L 528.945 49.922 L 528.945 17.852 L 539.102 17.852 Z M 347.695 49.922 L 347.695 60.078 L 320.156 60.078 A 13.994 13.994 0 0 1 317.841 59.875 A 19.312 19.312 0 0 1 315.547 59.336 A 13.556 13.556 0 0 1 310.918 56.895 Q 308.789 55.195 307.363 52.48 A 11.763 11.763 0 0 1 306.294 49.458 Q 306.004 48.105 305.95 46.549 A 20.901 20.901 0 0 1 305.938 45.82 L 305.938 32.07 Q 305.938 30.625 306.27 29.023 A 15.608 15.608 0 0 1 307.261 25.939 A 17.208 17.208 0 0 1 307.305 25.84 Q 308.008 24.258 309.121 22.813 Q 310.234 21.367 311.817 20.273 A 13.001 13.001 0 0 1 314.223 18.973 A 15.79 15.79 0 0 1 315.469 18.516 A 13.568 13.568 0 0 1 317.971 17.979 A 18.027 18.027 0 0 1 320.156 17.852 L 347.695 17.852 L 347.695 28.008 L 320.156 28.008 Q 318.763 28.008 317.838 28.504 A 3.099 3.099 0 0 0 317.129 29.023 Q 316.296 29.841 316.133 31.368 A 7.387 7.387 0 0 0 316.094 32.148 L 316.094 45.82 Q 316.094 47.297 316.673 48.259 A 3.173 3.173 0 0 0 317.149 48.867 A 3.361 3.361 0 0 0 318.545 49.69 Q 319.282 49.922 320.234 49.922 L 347.695 49.922 Z M 280.078 17.852 L 280.078 28.008 L 262.344 28.008 L 262.344 60.078 L 252.07 60.078 L 252.07 28.008 L 238.867 28.008 L 238.867 17.852 L 252.07 17.852 L 252.07 4.063 L 262.344 4.063 L 262.344 17.852 L 280.078 17.852 Z M 132.461 17.852 L 132.461 64.141 A 17.796 17.796 0 0 1 132.295 66.626 A 13.601 13.601 0 0 1 131.797 68.848 A 14.896 14.896 0 0 1 130.857 71.15 A 12.257 12.257 0 0 1 130.039 72.52 A 11.958 11.958 0 0 1 127.545 75.18 A 11.357 11.357 0 0 1 127.5 75.215 Q 126.055 76.328 124.473 77.031 A 15.732 15.732 0 0 1 121.489 78.023 A 14.614 14.614 0 0 1 121.289 78.066 A 16.119 16.119 0 0 1 119.348 78.352 A 13.403 13.403 0 0 1 118.242 78.398 L 99.922 78.398 L 99.922 68.242 L 118.242 68.242 A 6.224 6.224 0 0 0 119.399 68.142 Q 120.049 68.019 120.553 67.745 A 3.004 3.004 0 0 0 121.289 67.187 Q 122.171 66.272 122.287 64.65 A 7.124 7.124 0 0 0 122.305 64.141 L 122.305 17.852 L 132.461 17.852 Z M 484.297 32.07 L 484.297 45.82 A 17.796 17.796 0 0 1 484.131 48.306 A 13.601 13.601 0 0 1 483.633 50.527 A 14.896 14.896 0 0 1 482.693 52.83 A 12.257 12.257 0 0 1 481.875 54.199 A 11.958 11.958 0 0 1 479.381 56.86 A 11.357 11.357 0 0 1 479.336 56.895 Q 477.891 58.008 476.309 58.711 A 15.561 15.561 0 0 1 473.106 59.746 A 16.638 16.638 0 0 1 471.242 60.023 A 13.585 13.585 0 0 1 470.039 60.078 L 451.719 60.078 A 13.994 13.994 0 0 1 449.404 59.875 A 19.312 19.312 0 0 1 447.109 59.336 A 13.556 13.556 0 0 1 442.481 56.895 Q 440.352 55.195 438.926 52.48 A 11.763 11.763 0 0 1 437.857 49.458 Q 437.567 48.105 437.513 46.549 A 20.901 20.901 0 0 1 437.5 45.82 L 437.5 32.07 Q 437.5 28.536 438.668 25.976 A 10.559 10.559 0 0 1 438.926 25.449 A 14.848 14.848 0 0 1 440.809 22.65 A 12.47 12.47 0 0 1 442.481 21.035 A 13.556 13.556 0 0 1 447.109 18.594 A 19.362 19.362 0 0 1 449.367 18.061 Q 450.579 17.855 451.684 17.852 A 12.003 12.003 0 0 1 451.719 17.852 L 470.039 17.852 Q 473.945 17.852 476.68 19.258 A 14.458 14.458 0 0 1 479.414 21.061 A 11.988 11.988 0 0 1 481.094 22.793 A 14.023 14.023 0 0 1 483.535 27.422 A 18.668 18.668 0 0 1 484.101 29.798 A 13.863 13.863 0 0 1 484.297 32.07 Z M 429.063 32.07 L 429.063 60.078 L 418.906 60.078 L 418.906 32.07 Q 418.906 30.677 418.41 29.752 A 3.099 3.099 0 0 0 417.891 29.043 A 3.19 3.19 0 0 0 416.585 28.255 Q 416.076 28.087 415.454 28.033 A 7.091 7.091 0 0 0 414.844 28.008 L 396.524 28.008 L 396.524 17.852 L 414.844 17.852 Q 416.289 17.852 417.891 18.184 A 15.608 15.608 0 0 1 420.975 19.175 A 17.208 17.208 0 0 1 421.074 19.219 Q 422.656 19.922 424.102 21.035 A 11.941 11.941 0 0 1 426.632 23.718 A 13.476 13.476 0 0 1 426.641 23.73 A 13.001 13.001 0 0 1 427.942 26.137 A 15.79 15.79 0 0 1 428.399 27.383 A 13.568 13.568 0 0 1 428.936 29.885 A 18.027 18.027 0 0 1 429.063 32.07 Z M 392.422 0 L 392.422 60.078 L 382.266 60.078 L 382.266 0 L 392.422 0 Z M 297.07 17.852 L 297.07 60.078 L 286.914 60.078 L 286.914 17.852 L 297.07 17.852 Z M 474.141 45.82 L 474.141 32.148 Q 474.141 30.039 473.086 29.023 Q 472.17 28.142 470.548 28.025 A 7.124 7.124 0 0 0 470.039 28.008 L 451.797 28.008 A 6.382 6.382 0 0 0 450.623 28.109 Q 449.955 28.234 449.434 28.514 A 3.156 3.156 0 0 0 448.711 29.043 Q 447.776 29.96 447.67 31.63 A 6.936 6.936 0 0 0 447.656 32.07 L 447.656 45.82 Q 447.656 47.297 448.236 48.259 A 3.173 3.173 0 0 0 448.711 48.867 A 3.361 3.361 0 0 0 450.107 49.69 Q 450.845 49.922 451.797 49.922 L 470.039 49.922 Q 471.423 49.922 472.336 49.45 A 2.991 2.991 0 0 0 473.125 48.867 Q 474.007 47.952 474.123 46.329 A 7.124 7.124 0 0 0 474.141 45.82 Z M 132.461 0 L 132.461 9.18 L 122.305 9.18 L 122.305 0 L 132.461 0 Z M 297.07 0 L 297.07 9.18 L 286.914 9.18 L 286.914 0 L 297.07 0 Z" vector-effect="non-scaling-stroke"/></g></svg>